<?xml version="1.0" standalone="no"?>
<!DOCTYPE svg PUBLIC "-//W3C//DTD SVG 20010904//EN"
 "http://www.w3.org/TR/2001/REC-SVG-20010904/DTD/svg10.dtd">
<svg version="1.0" xmlns="http://www.w3.org/2000/svg"
 width="700.000000pt" height="700.000000pt" viewBox="0 0 700.000000 700.000000"
 preserveAspectRatio="xMidYMid meet">
<metadata>
Created by potrace 1.11, written by Peter Selinger 2001-2013
</metadata>
<g transform="translate(0.000000,700.000000) scale(0.100000,-0.100000)"
fill="#000000" stroke="none">
<path d="M2340 6883 c-630 -46 -1207 -314 -1645 -764 -361 -371 -579 -802
-667 -1314 -18 -108 -22 -170 -22 -370 -1 -253 7 -341 50 -547 35 -168 77
-308 138 -460 55 -139 1285 -2802 1338 -2898 77 -138 202 -258 346 -330 124
-62 214 -83 362 -83 132 -1 198 11 312 57 170 69 335 220 418 385 12 24 114
389 226 810 179 673 207 769 230 789 49 43 134 29 164 -29 5 -9 100 -355 210
-770 219 -819 221 -826 326 -953 180 -219 477 -330 752 -282 234 41 437 172
558 362 40 62 1279 2733 1359 2929 212 518 259 1051 138 1560 -118 497 -399
958 -791 1296 -371 319 -828 526 -1312 594 -188 27 -480 25 -632 -3 -213 -40
-430 -124 -616 -240 -46 -29 -86 -52 -88 -52 -3 0 -33 19 -66 41 -86 59 -256
141 -374 182 -223 77 -467 108 -714 90z m395 -478 c261 -54 451 -158 710 -390
454 -407 947 -806 1136 -920 80 -49 85 -50 160 -50 70 0 81 3 120 30 84 59
119 142 100 234 -16 80 -49 123 -132 172 -83 48 -249 172 -434 324 -218 178
-524 440 -524 447 -1 12 126 73 221 106 145 51 242 66 428 66 676 -1 1307
-346 1695 -924 75 -112 185 -339 229 -472 76 -234 101 -414 93 -681 -4 -151
-11 -218 -31 -312 -31 -150 -76 -299 -125 -424 -21 -53 -320 -704 -664 -1448
-345 -744 -633 -1368 -641 -1387 -18 -43 -89 -121 -139 -153 -157 -99 -389
-45 -487 113 -17 27 -110 366 -354 1289 -37 139 -80 278 -97 313 -36 75 -124
173 -196 218 -87 57 -193 87 -303 87 -161 1 -287 -50 -401 -164 -100 -99 -122
-153 -235 -579 -336 -1274 -308 -1185 -404 -1257 -108 -79 -256 -92 -377 -33
-118 58 -106 37 -552 1001 -1016 2195 -954 2056 -1011 2294 -42 173 -60 332
-60 522 0 291 53 544 166 793 304 671 935 1120 1689 1200 113 12 326 5 420
-15z"/>
<path d="M2249 5417 c-60 -17 -85 -36 -209 -161 l-104 -105 -126 123 c-140
138 -164 151 -266 144 -51 -3 -72 -10 -106 -35 -58 -41 -98 -118 -98 -187 1
-81 29 -128 157 -258 l117 -118 -125 -127 c-133 -136 -149 -164 -149 -254 1
-127 122 -231 252 -216 72 9 103 30 231 155 l117 116 123 -121 c71 -72 137
-129 159 -138 126 -52 278 30 307 165 22 101 -2 148 -152 306 l-116 121 116
114 c127 126 156 172 156 254 -1 152 -140 261 -284 222z"/>
</g>
</svg>
